<svg xmlns="http://www.w3.org/2000/svg" fill="none" viewBox="0 0 48 48"><path fill="#CED2DB" fill-rule="evenodd" d="M12.64 10C15.18 4 19.32 0 24 0a24 24 0 0 1-.02 48c-4.67 0-8.81-4-11.35-10H24a14 14 0 1 0 0-28zm3.56-8.7a23.2 23.2 0 0 0-5.68 8.7H4.51A24 24 0 0 1 16.2 1.3M3.21 36H9.8A39.2 39.2 0 0 1 8 25H0a23.9 23.9 0 0 0 3.21 11M24 25H10c.073 3.74.703 7.447 1.87 11H24zM11.87 12A37.6 37.6 0 0 0 10 23h14V12zm-1.35 26h-6a24 24 0 0 0 11.68 8.7 23.2 23.2 0 0 1-5.68-8.7M8 23H0a23.9 23.9 0 0 1 3.21-11H9.8A39.2 39.2 0 0 0 8 23" clip-rule="evenodd"/><path fill="#0052FF" d="M12 24a12 12 0 0 0 12 12V12a12 12 0 0 0-12 12"/><path fill="#FFD200" d="M24 12v24a12 12 0 0 0 0-24"/><path fill="#0A0B0D" fill-rule="evenodd" d="M15.54 24h2A6.45 6.45 0 0 1 24 17.55 6.45 6.45 0 0 1 30.41 24h2A8.46 8.46 0 0 0 24 15.55 8.46 8.46 0 0 0 15.54 24m2.48 5.976A8.46 8.46 0 0 0 24 32.45 8.46 8.46 0 0 0 32.41 24h-2A6.45 6.45 0 0 1 24 30.45 6.45 6.45 0 0 1 17.54 24h-2a8.46 8.46 0 0 0 2.48 5.976" clip-rule="evenodd"/></svg>