<svg xmlns="http://www.w3.org/2000/svg" fill="none" viewBox="0 0 48 48"><path fill="#0052FF" d="M48 44h-8v4h8zM8 44H0v4h8zM48 8H0v36h48z"/><path fill="#0A0B0D" d="M40 8H8v32h32z"/><path fill="#CED2DB" d="M40 0H8v8h32z"/><path fill="#0A0B0D" d="M8 32H6v4h2zm0-20H6v4h2z"/><path fill="#FFFFFF" fill-rule="evenodd" d="M24 21.1a3.3 3.3 0 1 0 0 6.6 3.3 3.3 0 0 0 0-6.6m-5.3 3.3a5.3 5.3 0 1 1 10.6 0 5.3 5.3 0 0 1-10.6 0" clip-rule="evenodd"/><path fill="#FFFFFF" fill-rule="evenodd" d="M24 15.6a8.8 8.8 0 1 0 0 17.6 8.8 8.8 0 0 0 0-17.6m-10.8 8.8c0-5.965 4.835-10.8 10.8-10.8 5.964 0 10.8 4.835 10.8 10.8S29.963 35.2 24 35.2s-10.8-4.835-10.8-10.8" clip-rule="evenodd"/><path fill="#FFFFFF" fill-rule="evenodd" d="m20.491 22.307-4.3-4.3 1.415-1.414 4.3 4.3zm9.912 9.909-4.2-4.1 1.397-1.432 4.2 4.1zm-14.212-1.423 3.8-3.8 1.415 1.414-3.8 3.8zm15.917-13.086-4.6 4.6-1.414-1.414 4.6-4.6z" clip-rule="evenodd"/></svg>