<svg xmlns="http://www.w3.org/2000/svg" fill="none" viewBox="0 0 48 48"><path fill="#0052FF" d="M44 24c0 11.046-8.954 20-20 20S4 35.046 4 24 12.954 4 24 4s20 8.954 20 20"/><path fill="#CED2DB" fill-rule="evenodd" d="M18 .714A24 24 0 0 1 23.832 0c2.011 0 3.965.247 5.832.714l-3.666 15.583A8 8 0 0 0 23.832 16a8 8 0 0 0-2.165.297z" clip-rule="evenodd"/><path fill="#0052FF" fill-rule="evenodd" d="m26.915 12.4-.917 3.897A8 8 0 0 0 23.832 16c-.75 0-1.476.103-2.165.297L20.75 12.4c.984-.261 2.017-.4 3.082-.4 1.066 0 2.1.139 3.083.4" clip-rule="evenodd"/><path fill="#CED2DB" fill-rule="evenodd" d="M30 47.287c-1.867.466-3.82.713-5.832.713s-3.965-.247-5.832-.714l3.666-15.583a8 8 0 0 0 2.166.297 8 8 0 0 0 2.165-.297z" clip-rule="evenodd"/><path fill="#0052FF" fill-rule="evenodd" d="m21.085 35.6.917-3.897a8 8 0 0 0 2.166.297c.75 0 1.476-.103 2.165-.297l.917 3.897c-.984.261-2.017.4-3.082.4-1.066 0-2.1-.139-3.083-.4" clip-rule="evenodd"/><path fill="#CED2DB" fill-rule="evenodd" d="M47.287 18c.466 1.867.713 3.82.713 5.832s-.247 3.965-.714 5.832l-15.583-3.666A8 8 0 0 0 32 23.832a8 8 0 0 0-.297-2.165z" clip-rule="evenodd"/><path fill="#0052FF" fill-rule="evenodd" d="m35.6 26.914-3.897-.917A8 8 0 0 0 32 23.833c0-.75-.103-1.477-.297-2.166l3.897-.916c.261.983.4 2.016.4 3.082s-.139 2.099-.4 3.082" clip-rule="evenodd"/><path fill="#CED2DB" fill-rule="evenodd" d="M.714 30A24 24 0 0 1 0 24.168c0-2.011.247-3.965.714-5.832l15.583 3.666A8 8 0 0 0 16 24.168c0 .75.103 1.477.297 2.165z" clip-rule="evenodd"/><path fill="#0052FF" fill-rule="evenodd" d="m12.4 21.086 3.897.917A8 8 0 0 0 16 24.168c0 .75.103 1.477.297 2.166l-3.897.916c-.261-.983-.4-2.016-.4-3.082s.139-2.099.4-3.082M30 41h8a3 3 0 0 0 3-3v-8h2v8a5 5 0 0 1-5 5h-8zM18 7h-8a3 3 0 0 0-3 3v8H5v-8a5 5 0 0 1 5-5h8zM7 30v8a3 3 0 0 0 3 3h8v2h-8a5 5 0 0 1-5-5v-8zm34-12v-8a3 3 0 0 0-3-3h-8V5h8a5 5 0 0 1 5 5v8z" clip-rule="evenodd"/><path fill="#0A0B0E" fill-rule="evenodd" d="m4.609 19.252 11.688 2.75A8 8 0 0 0 16 24.168c0 .75.103 1.477.297 2.165l-11.688 2.75A20 20 0 0 1 4 24.169c0-1.696.211-3.343.609-4.916M28.75 4.609 26 16.297A8 8 0 0 0 23.833 16c-.75 0-1.477.103-2.166.297l-2.75-11.688A20 20 0 0 1 23.834 4c1.696 0 3.343.211 4.915.609M19.25 43.391 22 31.704a8 8 0 0 0 2.166.296c.75 0 1.477-.103 2.166-.297l2.75 11.688c-1.573.398-3.22.609-4.916.609s-3.343-.211-4.915-.609m24.14-14.643-11.687-2.75A8 8 0 0 0 32 23.832a8 8 0 0 0-.297-2.165l11.688-2.75c.398 1.572.609 3.219.609 4.915s-.211 3.343-.609 4.916" clip-rule="evenodd"/><path fill="#FFFFFE" d="M34 24c0 5.523-4.477 10-10 10s-10-4.477-10-10 4.477-10 10-10 10 4.477 10 10"/></svg>