<svg xmlns="http://www.w3.org/2000/svg" fill="none" viewBox="0 0 32 32"><path fill="#FFFFFF" d="M23.504 8.412H8.328v15.176h15.176z"/><path fill="#0052FF" d="M8.917 16a7 7 0 1 0 0-14 7 7 0 0 0 0 14"/><path fill="#3CC28A" d="M22.916 16a7 7 0 1 0 0-14 7 7 0 0 0 0 14M8.917 30a7 7 0 1 0 0-14 7 7 0 0 0 0 14"/><path fill="#0052FF" d="M22.916 30a7 7 0 1 0 0-14 7 7 0 0 0 0 14"/><path fill="#0A0B0D" d="M15.916 9q0-.294-.028-.588h-7.56v7.56c.196.017.387.028.588.028 3.864 0 7-3.136 7-7m7 7q.294-.001.588-.028v-7.56h-7.56a7 7 0 0 0-.028.588c0 3.864 3.136 7 7 7"/><path fill="#0A0B0D" d="M8.916 16q-.294.001-.588.028v7.56h7.56c.017-.196.028-.386.028-.588 0-3.864-3.136-7-7-7"/><path fill="#0A0B0D" d="M23.504 16.028a7 7 0 0 0-.588-.028c-3.864 0-7 3.136-7 7q.002.294.028.588h7.56z"/></svg>