<svg xmlns="http://www.w3.org/2000/svg" fill="none" viewBox="0 0 40 40"><path fill="#3CC28A" d="M36.1 33.573h-28a5.61 5.61 0 0 1-5.6-5.6 5.61 5.61 0 0 1 5.6-5.6h.186L5.3 6.44H2.55V2.5h6.008l4.448 23.788H8.088c-.917 0-1.673.755-1.673 1.672s.756 1.673 1.673 1.673h28v3.927z"/><path fill="#0052FF" d="M25.049 33.573a3.929 3.929 0 0 1 7.855 0 3.929 3.929 0 0 1-7.855 0m-16.515-.001a3.929 3.929 0 0 1 7.855 0 3.929 3.929 0 0 1-7.855 0"/><path fill="#0A0B0E" d="M8.534 33.572a3.929 3.929 0 0 1 7.855 0m8.66.001a3.929 3.929 0 0 1 7.855 0"/><path fill="#0052FF" d="m5.61 7.988 31.89 4.733-2.502 13.567H9.017z"/><path fill="#3CC28A" d="M27.452 18.867a7.409 7.409 0 1 0 0-14.818 7.409 7.409 0 0 0 0 14.817"/><path fill="#0A0B0E" d="M34.812 12.325c-.434 3.692-3.568 6.554-7.36 6.554-4.1 0-7.42-3.32-7.42-7.421 0-.447.049-.88.11-1.314z"/></svg>