<svg xmlns="http://www.w3.org/2000/svg" fill="none" viewBox="0 0 48 48"><path fill="#0A0B0F" d="M42.398 5.6h-18.41v18.47h18.41z"/><path fill="#0052FF" d="M23.992 5.6H5.602v18.5h18.39z"/><path fill="#0052FF" d="M42.398 24.07h-18.41V42.4h18.41z"/><path fill="#CED2DB" d="M23.992 24.07H5.602V42.4h18.39z"/><path fill="#FFD200" d="M20.802 42.4a5.6 5.6 0 0 1-11.2 0z"/><path fill="#0052FF" d="M9.602 42.4a5.6 5.6 0 1 1 11.2 0z"/><path fill="#FFD200" d="M5.6 20a5.6 5.6 0 1 1 0-11.2z"/><path fill="#0A0B0D" d="M5.602 8.8a5.6 5.6 0 1 1 0 11.2z"/><path fill="#0052FF" d="M39.2 5.6a5.6 5.6 0 0 1-11.2 0z"/><path fill="#FFD200" d="M28 5.6a5.6 5.6 0 0 1 11.2 0z"/><path fill="#FFFFFE" d="m29.259 33.46 1.88 6 2.38-4.27 2.93 3.26 1.92-1.92-3.26-2.93 4.27-2.37-6-1.89-6-1.88z"/></svg>