<svg xmlns="http://www.w3.org/2000/svg" fill="none" viewBox="0 0 48 48"><path fill="#FFD200" d="M23.999 0a14.8 14.8 0 1 0 0 29.6A14.8 14.8 0 0 0 24 0"/><path fill="#0A0B0D" fill-rule="evenodd" d="M23.999 5.93a8.87 8.87 0 1 0 0 17.74 8.87 8.87 0 0 0 0-17.74m-10.87 8.87c0-6.004 4.866-10.87 10.87-10.87s10.87 4.866 10.87 10.87c0 6.002-4.867 10.87-10.87 10.87-6.004 0-10.87-4.868-10.87-10.87" clip-rule="evenodd"/><path fill="#CED2DB" d="M24 48 0 33.6V6.4l24 14.4z"/><path fill="#0052FF" d="M9.2 14.8a14.8 14.8 0 0 0 14.799 14.8v-8.8l-14.54-8.73c-.172.9-.26 1.814-.26 2.73M24 48l24-14.4V6.4L24 20.8z"/><path fill="#0A0B0D" d="M38.8 14.8c0-.916-.088-1.83-.26-2.73L24 20.8v8.8a14.8 14.8 0 0 0 14.8-14.8"/><path fill="#0A0B0D" fill-rule="evenodd" d="M23.999 5.93a8.87 8.87 0 1 0 0 17.74 8.87 8.87 0 0 0 0-17.74m-10.87 8.87c0-6.004 4.866-10.87 10.87-10.87s10.87 4.866 10.87 10.87c0 6.002-4.867 10.87-10.87 10.87-6.004 0-10.87-4.868-10.87-10.87" clip-rule="evenodd"/></svg>