<svg xmlns="http://www.w3.org/2000/svg" fill="none" viewBox="0 0 40 40"><path fill="#5DE2F8" d="M36 2.5H18.589v35h17.41z"/><path fill="#0052FF" d="M33.178 19.585C31.946 32.84 18.59 35.493 18.59 35.493S5.232 32.84 4 19.585V9.983l14.59-5.464 14.588 5.464z"/><path fill="#0A0B0D" d="m18.589 4.52 14.589 5.463v9.602c-1.232 13.256-14.59 15.908-14.59 15.908"/><path fill="#0052FF" d="M18.589 28.233c4.522 0 8.182-3.68 8.182-8.227h-8.182z"/><path fill="#5DE2F8" d="M18.59 11.78v8.226h8.181c0-4.547-3.66-8.226-8.182-8.226"/><path fill="#FFFFFF" d="M18.589 28.233c-4.522 0-8.182-3.68-8.182-8.227s3.66-8.226 8.182-8.226"/></svg>