<svg xmlns="http://www.w3.org/2000/svg" fill="none" viewBox="0 0 32 32"><g clip-path="url(#a)"><path fill="#0052FF" d="M13.3 11.8 2.4 22.7c-.5.5-.5 1.4 0 1.9l5 5c.5.6 1.4.6 1.9 0l8.6-8.6c-2.4-2.5-4-5.7-4.6-9.2"/><path fill="#0052FF" d="M17.5 11.6 9.2 3.4c-.5-.5-1.4-.5-1.9 0l-5 5c-.5.5-.5 1.4 0 1.9l10.2 10.2c.7-3.4 2.5-6.5 5-8.9"/><path fill="#CED2DB" d="M28.6 22.7 18.4 12.5c-1.2 3.1-3.4 5.8-6.1 7.7l9.4 9.4c.6.6 1.4.6 1.9 0l5-5c.5-.5.5-1.4 0-1.9"/><path fill="#CED2DB" d="m20.7 18.2 7.9-7.9c.5-.5.5-1.4 0-1.9l-5-5c-.5-.5-1.4-.5-1.9 0l-9.5 9.5c3 1.4 5.9 3.2 8.5 5.3"/><path fill="#CED2DB" d="m15.5 9.6-6.9 6.9 6.9 6.9 6.9-6.9z"/><path fill="#0A0B0E" d="m15.5 9.6-6.9 6.9 6.9 6.9 6.9-6.9z"/><path fill="#0A0B0E" d="m15.5 9.6-6.9 6.9 6.9 6.9 6.9-6.9z"/></g><defs><clipPath id="a"><path fill="#FFFFFF" d="M2 3h27v27H2z"/></clipPath></defs></svg>