<svg xmlns="http://www.w3.org/2000/svg" fill="none" viewBox="0 0 48 48"><path fill="#CED2DB" d="M48 24H0v24h48z"/><path fill="#0A0B0E" d="M47 24h-2a21 21 0 0 0-42 0H1a23 23 0 0 1 46 0"/><path fill="#0052FF" d="M48 24H0v24h48z"/><path fill="#0A0B0D" fill-rule="evenodd" d="M7 24h34a17 17 0 0 1-34 0" clip-rule="evenodd"/><path fill="#0052FF" fill-rule="evenodd" d="M32.193 32C30.788 38.548 27.687 43 24 43s-6.788-4.452-8.193-11H8v-2h7.441A40 40 0 0 1 15 24h2c0 2.162.164 4.173.454 6h13.092c.29-1.827.454-3.838.454-6h2c0 2.105-.154 4.121-.441 6H41v2zm-14.356 0h12.326c-1.266 5.59-3.775 9-6.163 9s-4.897-3.41-6.163-9" clip-rule="evenodd"/><path fill="#CED2DB" d="M30.546 18c.29 1.827.454 3.838.454 6H17c0-2.162.164-4.173.454-6zM15 24H7c0-2.07.377-4.1 1.094-6h7.352A39.5 39.5 0 0 0 15 24m-6-8h6.815c.76-3.51 2.007-6.417 3.564-8.36A17 17 0 0 0 9 16m15-9c-2.388 0-4.897 3.41-6.163 9h12.326C28.897 10.41 26.388 7 24 7m4.65.648A17 17 0 0 1 39 16h-6.807c-.752-3.505-1.99-6.41-3.543-8.352M39.906 18h-7.347c.287 1.879.441 3.895.441 6h8c0-2.07-.377-4.1-1.094-6"/></svg>