<svg xmlns="http://www.w3.org/2000/svg" fill="none" viewBox="0 0 32 32"><path fill="#0052FF" d="M30 17H2v13h28z"/><path fill="#5DE2F8" d="m27 11.708-2.29-.768c-.486-.14-.902-.559-1.041-.978-.208-.489-.208-1.048.07-1.467l1.11-2.165-1.944-1.955-2.151 1.117c-.486.21-.972.28-1.457.07s-.833-.629-1.041-1.118L17.353 2h-2.776l-.763 2.305c-.139.489-.555.908-.972 1.047-.486.21-1.04.21-1.457-.07L9.233 4.166 7.221 6.19l1.11 2.166c.208.488.278.977.07 1.466-.209.49-.625.838-1.11 1.048L5 11.638v2.794l2.29.768c.486.14.902.559 1.041.978.208.489.208 1.047-.07 1.466l-1.11 2.166 1.944 1.955 2.151-1.117c.486-.21.972-.28 1.457-.07s.833.628 1.042 1.117L14.508 24h2.776l.763-2.305c.14-.489.555-.908.972-1.047.486-.21 1.04-.21 1.457.07l2.152 1.117 1.943-1.956-.972-2.095c-.208-.489-.277-.978-.069-1.466.208-.49.625-.839 1.11-1.048l2.29-.768v-2.794zm-11.035 4.68a3.343 3.343 0 0 1-3.33-3.353c0-1.816 1.457-3.352 3.33-3.352a3.34 3.34 0 0 1 3.332 3.352 3.343 3.343 0 0 1-3.332 3.352"/><path fill="#0A0B0E" fill-rule="evenodd" d="M23.406 17H8.476c-.018.23-.087.452-.214.644l-1.11 2.166 1.943 1.955 2.151-1.117c.486-.21.972-.28 1.457-.07s.833.628 1.041 1.117L14.508 24h2.776l.763-2.305c.14-.489.555-.908.972-1.047.486-.21 1.04-.21 1.457.07l2.152 1.117 1.943-1.956-.972-2.095a2.3 2.3 0 0 1-.193-.784" clip-rule="evenodd"/></svg>